<svg width="81" height="53" viewBox="0 0 81 53" fill="none" xmlns="http://www.w3.org/2000/svg">
<path d="M29.391 30.0506C33.5641 30.0506 36.9441 26.6244 36.9441 22.3944C36.9441 18.1643 33.5641 14.7382 29.391 14.7382C25.2179 14.7382 21.8379 18.1643 21.8379 22.3944C21.8379 26.6244 25.2368 30.0506 29.391 30.0506ZM29.391 28.7107C26.181 28.7107 23.5185 26.2416 23.1975 23.0643H26.653C26.4642 23.3705 26.3509 23.7151 26.3509 24.0787C26.3509 25.208 27.3517 26.1459 28.5791 26.1459C29.8064 26.1459 30.8072 25.2272 30.8072 24.0787C30.8072 23.7151 30.6939 23.3514 30.5051 23.0643H35.5657C35.2636 26.2416 32.6011 28.7107 29.391 28.7107ZM29.391 16.078C32.6011 16.078 35.2636 18.5471 35.5846 21.7244H23.1975C23.5374 18.5471 26.181 16.078 29.391 16.078Z" fill="#4E4E4E"/>
<path d="M18.2124 28.4045C20.1007 26.9498 20.7805 24.5572 19.9496 22.2795C19.1377 20.0784 17.1361 18.7768 14.8513 18.9299C14.7569 18.9299 14.6625 18.9491 14.5681 18.9491C12.0944 19.2362 10.3194 21.533 10.6027 24.0404C10.716 25.0549 11.2258 25.9545 12 26.5861C12.7931 27.2178 13.775 27.5049 14.7569 27.3709C16.4752 27.1603 17.7026 25.5908 17.4949 23.849C17.3438 22.5666 16.3242 21.5905 15.059 21.4948C14.0582 21.4182 13.1141 22.0307 12.7364 22.9877C12.4721 23.6768 12.5476 24.4233 12.9819 24.9783C13.3973 25.5143 14.0582 25.8014 14.738 25.7248C15.0968 25.6865 15.3611 25.342 15.3234 24.9783C15.2856 24.6147 14.9457 24.3467 14.5869 24.385C14.3792 24.4041 14.1715 24.3276 14.0393 24.1553C13.9638 24.0404 13.8316 23.8108 13.9827 23.4662C14.1526 23.026 14.5492 22.7772 14.9835 22.8155C15.6066 22.8537 16.1164 23.3514 16.192 23.983C16.2486 24.4615 16.1164 24.9592 15.8143 25.342C15.5122 25.7248 15.0779 25.9736 14.6058 26.0311C13.9638 26.1076 13.3218 25.9354 12.812 25.5143C12.3021 25.1123 11.9811 24.519 11.9056 23.8682C11.7168 22.1073 12.9819 20.4995 14.738 20.2889C14.8135 20.2889 14.8891 20.2698 14.9457 20.2698C16.985 20.1358 18.2313 21.4565 18.7034 22.758C19.1754 24.0404 19.1188 26.0119 17.4193 27.3326C16.664 27.9068 15.701 28.3853 14.5681 28.749C9.31865 30.3759 5.50433 33.4576 3.2384 35.7736C2.93628 36.0798 2.87963 36.5392 3.08734 36.922C3.31393 37.3048 3.72935 37.4771 4.14477 37.3431C5.52321 36.9411 8.7144 36.1372 11.4524 36.3286C8.73328 37.7259 3.99371 40.6544 0.198277 45.5161C-0.066082 45.8606 -0.066082 46.3391 0.198277 46.6836C0.462635 47.0282 0.934704 47.1239 1.31236 46.9516C3.27617 45.9946 8.24233 43.87 13.5673 43.7169C12 45.2672 9.52636 48.1766 8.61999 51.8324C8.52557 52.2152 8.67663 52.6363 8.99764 52.8469C9.1487 52.9617 9.33753 53 9.50747 53C9.6963 53 9.90401 52.9426 10.0551 52.8086C11.6035 51.641 15.6066 48.8657 19.402 48.4446C19.7608 48.4063 20.0252 48.0809 19.9874 47.6981C19.9496 47.3344 19.6286 47.0665 19.251 47.1047C15.7766 47.4875 12.2266 49.6313 10.2061 51.0285C11.4146 47.6215 14.0205 45.0184 15.1534 44.004C15.4367 43.736 15.55 43.3341 15.4178 42.9704C15.2856 42.6067 14.9457 42.3579 14.5681 42.3579C9.71519 42.2622 5.03226 43.8508 2.29426 45.0184C6.35405 40.4056 11.1503 37.879 13.1518 36.9603C13.5106 36.788 13.7372 36.4052 13.6994 36.0033C13.6617 35.6013 13.3596 35.2759 12.963 35.1802C10.4705 34.6443 7.43037 35.1228 5.23997 35.6587C7.44925 33.649 10.6971 31.3521 14.9079 30.0314C16.2486 29.6295 17.3438 29.0744 18.2124 28.4045Z" fill="#4E4E4E"/>
<path d="M50.4453 33.8404H42.3068C42.3257 33.8021 42.3446 33.7638 42.3824 33.7255C42.6656 33.3427 43.5153 32.7302 46.1589 32.7302C47.0464 32.7302 47.7828 32.1177 47.9339 31.3138C49.3312 32.0603 50.7097 32.3283 51.9748 32.3283C55.1471 32.3283 57.5263 30.6248 57.583 30.5865C57.8851 30.3759 57.9418 29.9549 57.734 29.6486C57.5263 29.3424 57.1109 29.2849 56.8088 29.4955C56.7899 29.5146 55.2793 30.6056 53.1266 30.9119C50.2565 31.333 47.6884 30.1845 45.498 27.5049C45.2714 27.2178 44.856 27.1795 44.5728 27.4092C44.3084 27.6197 44.2706 28.0025 44.4406 28.2896C43.3643 28.0599 42.0425 27.9451 40.513 27.9451C38.9835 27.9451 37.6806 28.0599 36.5854 28.2896C36.7553 28.0025 36.7175 27.6389 36.4532 27.4092C36.1699 27.1795 35.7545 27.2178 35.5279 27.5049C30.3352 33.8404 24.4626 29.6677 24.2171 29.4955C23.915 29.2849 23.5185 29.3424 23.2919 29.6486C23.0842 29.9549 23.1408 30.3759 23.443 30.5865C23.4807 30.6248 25.8788 32.3283 29.0511 32.3283C30.3163 32.3283 31.6947 32.0603 33.092 31.3138C33.2431 32.1177 33.9795 32.7302 34.867 32.7302C37.4728 32.7302 38.3414 33.3427 38.6247 33.7064C38.6625 33.7638 38.7002 33.8021 38.7191 33.8595H30.5806C25.7467 33.8595 21.8002 37.8599 21.8002 42.7598C21.8002 47.6598 25.7467 51.6602 30.5806 51.6602H40.5319H50.4831C55.317 51.6602 59.2635 47.6598 59.2635 42.7598C59.2635 37.8599 55.2982 33.8404 50.4453 33.8404ZM39.6821 32.9025C38.9268 31.8689 37.3029 31.3521 34.8481 31.3521C34.5838 31.3521 34.3761 31.1798 34.3761 30.9693C34.3761 30.5291 35.509 29.2658 40.513 29.2658C43.3454 29.2658 44.856 29.6677 45.6113 30.0123C46.3666 30.3568 46.6499 30.7396 46.6499 30.9693C46.6499 31.1798 46.4233 31.3521 46.1778 31.3521C43.723 31.3521 42.0802 31.8689 41.3438 32.9025C41.1172 33.2279 40.985 33.5533 40.9473 33.8212H40.5319H40.1164C40.0409 33.5533 39.9276 33.2279 39.6821 32.9025ZM50.4453 50.3012H40.4941H30.5429C26.4264 50.3012 23.0842 46.9133 23.0842 42.7407C23.0842 38.5681 26.4264 35.1802 30.5429 35.1802H40.4941H41.5704H50.4264C54.5429 35.1802 57.8851 38.5681 57.8851 42.7407C57.8851 46.9133 54.5617 50.3012 50.4453 50.3012Z" fill="#4E4E4E"/>
<path d="M53.7875 42.4344C53.6365 42.377 49.9732 40.9223 40.513 40.9223C31.0527 40.9223 27.3894 42.377 27.2384 42.4344C26.8985 42.5684 26.7285 42.9704 26.8796 43.2958C26.974 43.5637 27.2384 43.7169 27.5027 43.7169C27.5783 43.7169 27.6727 43.6977 27.7482 43.6786C27.786 43.6594 31.3926 42.2622 40.5318 42.2622C49.6711 42.2622 53.2777 43.6594 53.3155 43.6786C53.391 43.7169 53.4854 43.736 53.5609 43.736C53.8253 43.736 54.0708 43.5829 54.1652 43.3149C54.2785 42.9512 54.1274 42.5684 53.7875 42.4344Z" fill="#4E4E4E"/>
<path d="M51.616 30.0506C55.7891 30.0506 59.1691 26.6244 59.1691 22.3944C59.1691 18.1643 55.7891 14.7382 51.616 14.7382C47.4429 14.7382 44.0629 18.1643 44.0629 22.3944C44.0629 26.6244 47.4429 30.0506 51.616 30.0506ZM51.616 28.7107C48.406 28.7107 45.7435 26.2416 45.4225 23.0643H50.4831C50.2942 23.3705 50.1809 23.7151 50.1809 24.0787C50.1809 25.208 51.1817 26.1459 52.4091 26.1459C53.6365 26.1459 54.6373 25.2272 54.6373 24.0787C54.6373 23.7151 54.524 23.3514 54.3351 23.0643H57.7907C57.4697 26.2416 54.8261 28.7107 51.616 28.7107ZM51.616 16.078C54.8261 16.078 57.4886 18.5471 57.8096 21.7244H45.4225C45.7435 18.5471 48.406 16.078 51.616 16.078Z" fill="#4E4E4E"/>
<path d="M80.7899 45.4969C77.0133 40.6352 72.2549 37.7067 69.5358 36.3095C72.2738 36.1181 75.4649 36.922 76.8434 37.3239C77.2588 37.4388 77.6742 37.2665 77.9008 36.9029C78.1274 36.5392 78.0708 36.0607 77.7498 35.7544C75.4838 33.4576 71.6884 30.3568 66.4201 28.7299C65.2871 28.3853 64.3241 27.9068 63.5688 27.3135C61.8505 25.9928 61.8127 24.0213 62.2848 22.7389C62.7568 21.4373 64.0031 20.1166 66.0424 20.2506C66.118 20.2506 66.1935 20.2698 66.2502 20.2698C68.0062 20.4803 69.2714 22.1073 69.0637 23.8682C68.9126 25.2272 67.6852 26.1842 66.3634 26.0311C65.8914 25.9736 65.4571 25.7248 65.155 25.342C64.8528 24.9592 64.7207 24.4807 64.7773 23.983C64.8528 23.3514 65.3627 22.8537 65.9858 22.8155C66.4201 22.7772 66.8166 23.0451 66.9866 23.4662C67.1188 23.8108 67.0055 24.0404 66.9299 24.1553C66.7978 24.3276 66.59 24.4233 66.3823 24.385C66.0236 24.3467 65.6837 24.5955 65.6459 24.9783C65.6081 25.3611 65.8536 25.6865 66.2313 25.7248C66.9111 25.8014 67.5719 25.5143 67.9874 24.9783C68.4028 24.4233 68.4972 23.6768 68.2328 22.9877C67.8552 22.0116 66.9299 21.4182 65.9103 21.4948C64.6451 21.5905 63.6255 22.5666 63.4744 23.849C63.38 24.6912 63.6066 25.5143 64.1353 26.1842C64.6451 26.8541 65.4004 27.2752 66.2313 27.3709C68.2895 27.6197 70.1589 26.1268 70.4044 24.0404C70.6876 21.533 68.9126 19.2362 66.439 18.9491C66.3446 18.9299 66.2502 18.9299 66.1557 18.9299C63.8709 18.7768 61.8694 20.0975 61.0574 22.2795C60.2266 24.5381 60.9063 26.9498 62.7946 28.4045C63.6821 29.0744 64.7773 29.6295 66.0613 30.0314C70.2911 31.333 73.5389 33.649 75.7293 35.6587C73.5389 35.1419 70.4988 34.6634 68.0063 35.1802C67.6097 35.2568 67.3265 35.5822 67.2698 36.0032C67.2321 36.4052 67.4398 36.788 67.8174 36.9603C69.819 37.879 74.6152 40.4056 78.675 45.0184C75.937 43.8508 71.2541 42.2622 66.4012 42.3579C66.0236 42.3579 65.6837 42.6067 65.5515 42.9704C65.4193 43.3341 65.5137 43.736 65.8159 44.004C66.9488 45.0184 69.5546 47.6215 70.7631 51.0285C68.7427 49.6121 65.1927 47.4684 61.7183 47.1047C61.3595 47.0664 61.0385 47.3344 60.9819 47.6981C60.9441 48.0618 61.2085 48.3871 61.5672 48.4446C65.3627 48.8657 69.3658 51.641 70.9142 52.8086C71.0841 52.9426 71.273 53 71.4618 53C71.6317 53 71.8206 52.9426 71.9716 52.8469C72.2926 52.6172 72.4626 52.2152 72.3493 51.8324C71.4429 48.1766 68.9693 45.2672 67.402 43.7169C72.7269 43.87 77.6931 45.9946 79.6569 46.9516C80.0534 47.143 80.5066 47.0282 80.771 46.6836C81.0731 46.32 81.0731 45.8415 80.7899 45.4969Z" fill="#4E4E4E"/>
<path d="M57.4886 11.6566C56.45 10.7187 55.0149 9.74251 52.579 8.95775C52.5413 6.87143 51.2573 4.95739 48.9158 3.52185C47.4996 2.66053 45.7813 2.02889 43.9307 1.68436C43.7042 0.574215 42.0991 0 40.513 0C38.9268 0 37.3218 0.574215 37.0952 1.66522C35.2447 2.00975 33.5263 2.64139 32.1101 3.50271C29.7876 4.93825 28.4847 6.85229 28.4469 8.93861C26.011 9.72337 24.5759 10.7187 23.5374 11.6374C20.9315 13.9726 20.4217 17.5518 20.4028 17.6858C20.3462 18.0495 20.6105 18.394 20.9693 18.4323C21.0071 18.4323 21.026 18.4323 21.0637 18.4323C21.3847 18.4323 21.668 18.1835 21.7246 17.8581C21.7246 17.8198 22.1967 14.6425 24.4437 12.6136C26.4264 10.8335 30.033 8.80462 40.5507 8.80462C51.0684 8.80462 54.675 10.8335 56.6577 12.6136C58.8859 14.6042 59.358 17.7815 59.3768 17.8581C59.4146 18.2026 59.6978 18.4323 60.0377 18.4323C60.0755 18.4323 60.0944 18.4323 60.1322 18.4323C60.4909 18.3749 60.7553 18.0495 60.6986 17.6858C60.6042 17.5518 60.0944 13.9917 57.4886 11.6566ZM40.513 2.69881C46.1778 2.69881 50.823 5.28277 51.2195 8.5558C48.6892 7.92416 45.2714 7.50307 40.513 7.50307C35.7545 7.50307 32.3179 7.92416 29.8064 8.5558C30.203 5.28277 34.8481 2.69881 40.513 2.69881Z" fill="#4E4E4E"/>
</svg>
